<?xml version="1.0" standalone="no"?>
<!DOCTYPE svg PUBLIC "-//W3C//DTD SVG 20010904//EN"
 "http://www.w3.org/TR/2001/REC-SVG-20010904/DTD/svg10.dtd">
<svg version="1.0" xmlns="http://www.w3.org/2000/svg"
 width="500.000000pt" height="500.000000pt" viewBox="0 0 500.000000 500.000000"
 preserveAspectRatio="xMidYMid meet">
<metadata>
Created by potrace 1.16, written by Peter Selinger 2001-2019
</metadata>
<g transform="translate(0.000000,500.000000) scale(0.100000,-0.100000)"
fill="#000000" stroke="none">
<path d="M1680 3150 l0 -450 60 0 60 0 -2 448 -3 447 -57 3 -58 3 0 -451z"/>
<path d="M3207 3593 c-4 -3 -7 -206 -7 -450 l0 -443 60 0 60 0 0 450 0 450
-53 0 c-30 0 -57 -3 -60 -7z"/>
<path d="M2000 2500 c0 -80 3 -100 14 -100 10 0 16 13 18 38 3 36 4 37 48 42
35 4 47 11 60 33 13 24 13 30 0 55 -14 24 -22 27 -78 30 l-62 3 0 -101z"/>
<path d="M3230 2500 c0 -80 3 -100 14 -100 10 0 16 13 18 38 3 36 4 37 48 42
35 4 47 11 60 33 13 24 13 30 0 55 -14 24 -22 27 -78 30 l-62 3 0 -101z"/>
<path d="M1680 1850 l0 -451 58 3 57 3 3 448 2 447 -60 0 -60 0 0 -450z"/>
<path d="M3202 1853 l3 -448 58 -3 57 -3 0 451 0 450 -60 0 -60 0 2 -447z"/>
</g>
</svg>
